# Blender v2.76 (sub 0) OBJ File: ''
# www.blender.org
mtllib sponza_floor.mtl
o sponza_117
v 16.100500 -0.075200 -7.031300
v 16.100500 -0.075198 -42.208599
v -20.421200 -0.075198 -42.208599
v 16.100500 -0.075200 4.487800
v 16.100500 -0.075202 39.712700
v -20.435499 -0.075200 -1.242600
v -20.449699 -0.075202 39.712700
vt 2.621700 5.952500
vt -1.890500 5.952500
vt -1.890500 1.267900
vt 4.099200 5.952500
vt 8.617500 5.952500
vt 3.364200 1.266100
vt 8.617500 1.264200
vn 0.000000 1.000000 0.000000
usemtl sponza_18SG
s 1
f 1/1/1 2/2/1 3/3/1
f 1/1/1 3/3/1 4/4/1
f 5/5/1 4/4/1 3/3/1
f 5/5/1 3/3/1 6/6/1
f 7/7/1 5/5/1 6/6/1
